<svg width="155" height="27" viewBox="0 0 155 27" fill="none" xmlns="http://www.w3.org/2000/svg">
<path d="M5.18426 6.62783C4.98704 6.59304 4.78605 6.57544 4.58691 6.57544C2.92374 6.57544 1.50682 7.76555 1.2177 9.40524L0.0523712 16.0143C-0.275511 17.8736 0.970483 19.653 2.82978 19.9809C3.02701 20.0157 3.22799 20.0333 3.42713 20.0333C5.09017 20.0333 6.50723 18.8431 6.79635 17.2035L7.96174 10.5944C8.28949 8.73502 7.04356 6.95571 5.18426 6.62783Z" fill="#1268D9"/>
<path d="M14.7355 3.59316C14.5382 3.55837 14.3373 3.54077 14.1381 3.54077C12.475 3.54077 11.058 4.73089 10.769 6.37057L8.53337 19.0492C8.37457 19.9499 8.57604 20.8585 9.10059 21.6077C9.62515 22.3568 10.4101 22.8569 11.3108 23.0158C11.508 23.0506 11.709 23.0682 11.9081 23.0682C13.5712 23.0682 14.9882 21.878 15.2774 20.2384L17.5129 7.55973C17.8408 5.70036 16.5948 3.92104 14.7355 3.59316Z" fill="#1268D9"/>
<path d="M26.4951 1.46054C25.9705 0.71137 25.1856 0.211329 24.285 0.0524559C24.0877 0.017668 23.8866 0 23.6874 0C22.0244 0 20.6075 1.19011 20.3183 2.82987L16.8342 22.5896C16.6753 23.4903 16.8768 24.3989 17.4014 25.1481C17.926 25.8972 18.7109 26.3973 19.6115 26.5562C19.8087 26.591 20.0097 26.6087 20.209 26.6087C21.8722 26.6087 23.289 25.4185 23.5781 23.7788L27.0623 4.01902C27.2211 3.11837 27.0197 2.20971 26.4951 1.46054Z" fill="#1268D9"/>
<path d="M32.2312 6.62783C32.034 6.59304 31.833 6.57544 31.6339 6.57544C29.9707 6.57544 28.5538 7.76555 28.2646 9.40524L27.0992 16.0143C26.7714 17.8736 28.0174 19.653 29.8767 19.9809C30.0739 20.0157 30.2749 20.0333 30.474 20.0333C32.137 20.0333 33.5541 18.8431 33.8432 17.2035L35.0086 10.5944C35.3365 8.73502 34.0906 6.95571 32.2312 6.62783Z" fill="#1268D9"/>
<path d="M46.44 20V5.1H51.98C52.9933 5.1 53.8867 5.28667 54.66 5.66C55.4467 6.02 56.06 6.55333 56.5 7.26C56.94 7.95333 57.16 8.8 57.16 9.8C57.16 10.8267 56.9133 11.7 56.42 12.42C55.94 13.14 55.2867 13.6733 54.46 14.02L57.88 20H54.8L51.14 13.46L52.9 14.5H49.16V20H46.44ZM49.16 12.1H52.02C52.5133 12.1 52.94 12.0067 53.3 11.82C53.66 11.62 53.94 11.3467 54.14 11C54.34 10.6533 54.44 10.2533 54.44 9.8C54.44 9.33333 54.34 8.93333 54.14 8.6C53.94 8.25333 53.66 7.98667 53.3 7.8C52.94 7.6 52.5133 7.5 52.02 7.5H49.16V12.1ZM59.6627 20V5.1H69.5627V7.5H62.3827V11.32H69.1627V13.72H62.3827V17.6H69.5627V20H59.6627ZM76.8772 20.24C75.9305 20.24 75.0505 20.0667 74.2372 19.72C73.4372 19.3733 72.7439 18.8933 72.1572 18.28C71.5839 17.6533 71.1639 16.9267 70.8972 16.1L73.1572 15.12C73.5172 15.9733 74.0372 16.6467 74.7172 17.14C75.3972 17.62 76.1639 17.86 77.0172 17.86C77.4972 17.86 77.9105 17.7867 78.2572 17.64C78.6172 17.48 78.8905 17.2667 79.0772 17C79.2772 16.7333 79.3772 16.4133 79.3772 16.04C79.3772 15.6 79.2439 15.24 78.9772 14.96C78.7239 14.6667 78.3372 14.44 77.8172 14.28L74.9572 13.36C73.7972 13 72.9239 12.46 72.3372 11.74C71.7505 11.02 71.4572 10.1733 71.4572 9.2C71.4572 8.34667 71.6639 7.59333 72.0772 6.94C72.5039 6.28667 73.0905 5.78 73.8372 5.42C74.5972 5.04667 75.4639 4.86 76.4372 4.86C77.3305 4.86 78.1505 5.02 78.8972 5.34C79.6439 5.64667 80.2839 6.08 80.8172 6.64C81.3639 7.18667 81.7705 7.83333 82.0372 8.58L79.7972 9.58C79.5039 8.83333 79.0639 8.26 78.4772 7.86C77.8905 7.44667 77.2105 7.24 76.4372 7.24C75.9839 7.24 75.5839 7.32 75.2372 7.48C74.8905 7.62667 74.6172 7.84 74.4172 8.12C74.2305 8.38667 74.1372 8.70667 74.1372 9.08C74.1372 9.49333 74.2705 9.86 74.5372 10.18C74.8039 10.4867 75.2105 10.7267 75.7572 10.9L78.4972 11.76C79.6839 12.1467 80.5705 12.68 81.1572 13.36C81.7572 14.04 82.0572 14.88 82.0572 15.88C82.0572 16.7333 81.8372 17.4867 81.3972 18.14C80.9572 18.7933 80.3505 19.3067 79.5772 19.68C78.8039 20.0533 77.9039 20.24 76.8772 20.24ZM90.2464 20.24C89.0997 20.24 88.0797 20 87.1864 19.52C86.3064 19.04 85.6131 18.38 85.1064 17.54C84.5997 16.7 84.3464 15.7467 84.3464 14.68V5.1H87.0664V14.54C87.0664 15.1533 87.1997 15.7067 87.4664 16.2C87.7464 16.6933 88.1264 17.08 88.6064 17.36C89.0864 17.6267 89.6331 17.76 90.2464 17.76C90.8731 17.76 91.4197 17.6267 91.8864 17.36C92.3664 17.08 92.7397 16.6933 93.0064 16.2C93.2864 15.7067 93.4264 15.1533 93.4264 14.54V5.1H96.1464V14.68C96.1464 15.7467 95.8931 16.7 95.3864 17.54C94.8797 18.38 94.1797 19.04 93.2864 19.52C92.4064 20 91.3931 20.24 90.2464 20.24ZM98.8619 20V5.1H101.462L107.042 12.68H105.802L111.262 5.1H113.862V20H111.122V8.2L112.182 8.46L106.522 16H106.202L100.682 8.46L101.582 8.2V20H98.8619ZM115.493 20L120.633 5.1H124.153L129.293 20H126.333L125.273 16.8H119.513L118.433 20H115.493ZM120.293 14.4H124.493L122.013 6.98H122.773L120.293 14.4ZM130.952 20V5.1H133.672V12.86L132.932 12.6L139.272 5.1H142.692L136.752 12.14L136.912 10.22L142.872 20H139.672L135.672 13.44L133.672 15.82V20H130.952ZM144.526 20V5.1H154.426V7.5H147.246V11.32H154.026V13.72H147.246V17.6H154.426V20H144.526Z" fill="white"/>
</svg>
