<svg width="60" height="72" viewBox="0 0 60 72" fill="none" xmlns="http://www.w3.org/2000/svg">
<path d="M14.0352 13.2563H23.3724V22.5936H14.0352V13.2563ZM44.6865 18.0749H57.9869L41.1475 1.23566V14.536C41.1475 16.4874 42.7352 18.0749 44.6865 18.0749Z" fill="#0D3C9F"/>
<path d="M44.6851 22.2937C40.4076 22.2937 36.9274 18.8137 36.9274 14.536V0H8.5352C4.25753 0 0.777344 3.48019 0.777344 7.75786V64.2421C0.777344 68.5198 4.25753 72 8.53506 72H51.4634C55.741 72 59.2211 68.5198 59.2211 64.2421V22.2937H44.6851ZM9.81503 11.1469C9.81503 9.98198 10.7593 9.03755 11.9244 9.03755H25.4804C26.6455 9.03755 27.5898 9.98198 27.5898 11.1469V24.703C27.5898 25.868 26.6455 26.8124 25.4804 26.8124H11.9244C10.7593 26.8124 9.81503 25.868 9.81503 24.703V11.1469ZM11.9244 31.6313H39.0368C40.2018 31.6313 41.1461 32.5758 41.1461 33.7407C41.1461 34.9057 40.2018 35.8501 39.0368 35.8501H11.9244C10.7593 35.8501 9.81503 34.9057 9.81503 33.7407C9.81503 32.5756 10.7593 31.6313 11.9244 31.6313ZM48.0743 62.9623H11.9244C10.7593 62.9623 9.81503 62.0179 9.81503 60.8529C9.81503 59.688 10.7593 58.7436 11.9244 58.7436H48.0743C49.2391 58.7436 50.1837 59.688 50.1837 60.8529C50.1837 62.018 49.2391 62.9623 48.0743 62.9623ZM48.0743 53.925H11.9244C10.7593 53.925 9.81503 52.9806 9.81503 51.8157C9.81503 50.6507 10.7593 49.7063 11.9244 49.7063H48.0743C49.2391 49.7063 50.1837 50.6507 50.1837 51.8157C50.1837 52.9806 49.2391 53.925 48.0743 53.925ZM48.0743 44.8874H11.9244C10.7593 44.8874 9.81503 43.9429 9.81503 42.778C9.81503 41.613 10.7593 40.6686 11.9244 40.6686H48.0743C49.2391 40.6686 50.1837 41.613 50.1837 42.778C50.1837 43.9429 49.2391 44.8874 48.0743 44.8874Z" fill="#0D3C9F"/>
</svg>
