<svg width="72" height="72" viewBox="0 0 72 72" fill="none" xmlns="http://www.w3.org/2000/svg">
<g clip-path="url(#clip0_144_5381)">
<g clip-path="url(#clip1_144_5381)">
<path d="M60.75 28H43.1367C39.2006 28 36 24.7994 36 20.8633V3.25C36 2.44 36.2137 1.66938 36.6005 1H13.8867C11.1923 1 9 3.19234 9 5.88672V68.1133C9 70.8077 11.1923 73 13.8867 73H58.1133C60.8077 73 63 70.8077 63 68.1133V27.3995C62.3159 27.7942 61.5398 28.0014 60.75 28ZM27.6595 42.1595C28.5384 41.2806 29.9616 41.2806 30.8405 42.1595L33.75 45.0677V31.375C33.75 30.1319 34.7569 29.125 36 29.125C37.2431 29.125 38.25 30.1319 38.25 31.375V45.0677L41.1595 42.1595C42.037 41.2806 43.463 41.2806 44.3405 42.1595C45.2194 43.037 45.2194 44.463 44.3405 45.3405L37.5905 52.0905C37.1161 52.577 36.433 52.7967 35.7834 52.7402C34.6568 52.5897 35.0121 52.693 27.6595 45.3405C26.7806 44.463 26.7806 43.037 27.6595 42.1595ZM47.25 61.75H24.75C23.5069 61.75 22.5 60.7431 22.5 59.5C22.5 58.2569 23.5069 57.25 24.75 57.25H47.25C48.4931 57.25 49.5 58.2569 49.5 59.5C49.5 60.7431 48.4931 61.75 47.25 61.75ZM43.1367 23.5H60.75L40.5 3.25V20.8633C40.5 22.3173 41.6827 23.5 43.1367 23.5Z" fill="#0D3C9F"/>
</g>
</g>
<defs>
<clipPath id="clip0_144_5381">
<rect width="72" height="72" fill="white"/>
</clipPath>
<clipPath id="clip1_144_5381">
<rect width="72" height="72" fill="white" transform="translate(0 1)"/>
</clipPath>
</defs>
</svg>
