<svg width="72" height="72" viewBox="0 0 72 72" fill="none" xmlns="http://www.w3.org/2000/svg">
<g clip-path="url(#clip0_144_5377)">
<path fill-rule="evenodd" clip-rule="evenodd" d="M57.1185 31.5236L58.889 28.4569C59.7243 27.01 61.5857 26.5112 63.0326 27.3466L64.0834 27.9533C65.5303 28.7886 66.0291 30.6501 65.1936 32.097L63.4231 35.1636L57.1185 31.5236ZM7.75927 2.25C7.00973 2.25 6.39844 2.8613 6.39844 3.61083V68.3892C6.39844 69.1387 7.00973 69.75 7.75927 69.75H57.1174C57.8669 69.75 58.4782 69.1387 58.4782 68.3892V48.2283L51.4312 60.434L45.0262 64.1319C43.9311 64.7641 42.6473 64.4614 41.8882 63.636H13.4573C13.1589 63.636 12.8727 63.5175 12.6618 63.3065C12.4508 63.0956 12.3323 62.8094 12.3323 62.511C12.3323 62.2127 12.4508 61.9265 12.6618 61.7156C12.8727 61.5046 13.1589 61.386 13.4573 61.386H41.2297V56.0616H13.4573C13.1589 56.0616 12.8727 55.943 12.6618 55.7321C12.4508 55.5211 12.3323 55.2349 12.3323 54.9366C12.3323 54.6382 12.4508 54.352 12.6618 54.1411C12.8727 53.9301 13.1589 53.8116 13.4573 53.8116H41.6527L44.7269 48.4869H13.4573C13.1589 48.4869 12.8727 48.3684 12.6618 48.1574C12.4508 47.9465 12.3323 47.6603 12.3323 47.3619C12.3323 47.0636 12.4508 46.7774 12.6618 46.5664C12.8727 46.3555 13.1589 46.2369 13.4573 46.2369H46.0259L49.1001 40.9123H13.4573C13.1589 40.9123 12.8727 40.7938 12.6618 40.5828C12.4508 40.3718 12.3323 40.0857 12.3323 39.7873C12.3323 39.4889 12.4508 39.2028 12.6618 38.9918C12.8727 38.7808 13.1589 38.6623 13.4573 38.6623H50.3992L56.9408 27.332C57.3242 26.6667 57.8491 26.0938 58.4783 25.6538V12.9378H50.7206C49.104 12.9378 47.7903 11.6241 47.7903 10.0074V2.25H7.75927ZM44.0407 54.1751L50.3454 57.8152L62.2984 37.1121L55.9936 33.472L44.0407 54.1751ZM48.6619 59.4352L43.9013 62.1837C43.7143 62.2917 43.4794 62.156 43.4794 61.9401V56.4431L48.6619 59.4352ZM16.873 28.7238C16.7959 28.7241 16.7197 28.7075 16.6498 28.675C16.5798 28.6425 16.5179 28.595 16.4684 28.5359C16.419 28.4767 16.3831 28.4074 16.3635 28.3328C16.3439 28.2583 16.3409 28.1803 16.3548 28.1045C17.0959 23.9714 20.7094 20.8346 25.0557 20.8346C29.402 20.8346 33.0154 23.9712 33.7566 28.1043C33.7705 28.1802 33.7676 28.2581 33.7479 28.3327C33.7283 28.4073 33.6925 28.4766 33.643 28.5357C33.5935 28.5949 33.5316 28.6424 33.4617 28.6748C33.3917 28.7073 33.3155 28.724 33.2384 28.7236L16.873 28.7238ZM25.0559 11.0087C27.5244 11.0087 29.5256 13.0098 29.5256 15.4785C29.5256 17.947 27.5245 19.9482 25.0559 19.9482C22.5873 19.9482 20.5861 17.947 20.5861 15.4785C20.5861 13.0098 22.5873 11.0087 25.0559 11.0087ZM50.0403 2.36798C50.1889 2.43683 50.3239 2.53186 50.4388 2.64853L58.0795 10.2892C58.1962 10.4042 58.2913 10.5392 58.3602 10.6878H50.7206C50.5403 10.6874 50.3674 10.6157 50.2399 10.4881C50.1124 10.3606 50.0406 10.1878 50.0403 10.0074V2.36798ZM36.3732 33.0334H13.7384C12.9649 33.0334 12.3321 32.4006 12.3321 31.6271V8.99241C12.3321 8.21897 12.9649 7.58616 13.7384 7.58616H36.3732C37.1467 7.58616 37.7795 8.21897 37.7795 8.99241V31.6271C37.7795 32.4006 37.1467 33.0334 36.3732 33.0334ZM42.722 18.1883C42.4236 18.1883 42.1375 18.0698 41.9265 17.8588C41.7155 17.6478 41.597 17.3617 41.597 17.0633C41.597 16.7649 41.7155 16.4788 41.9265 16.2678C42.1375 16.0568 42.4236 15.9383 42.722 15.9383H51.4194C51.7178 15.9383 52.0039 16.0568 52.2149 16.2678C52.4259 16.4788 52.5444 16.7649 52.5444 17.0633C52.5444 17.3617 52.4259 17.6478 52.2149 17.8588C52.0039 18.0698 51.7178 18.1883 51.4194 18.1883H42.722ZM42.722 25.7629C42.4236 25.7629 42.1375 25.6444 41.9265 25.4334C41.7155 25.2224 41.597 24.9363 41.597 24.6379C41.597 24.3396 41.7155 24.0534 41.9265 23.8424C42.1375 23.6314 42.4236 23.5129 42.722 23.5129H51.4194C51.7178 23.5129 52.0039 23.6314 52.2149 23.8424C52.4259 24.0534 52.5444 24.3396 52.5444 24.6379C52.5444 24.9363 52.4259 25.2224 52.2149 25.4334C52.0039 25.6444 51.7178 25.7629 51.4194 25.7629H42.722ZM42.722 33.3377C42.4236 33.3377 42.1375 33.2192 41.9265 33.0082C41.7155 32.7972 41.597 32.5111 41.597 32.2127C41.597 31.9143 41.7155 31.6282 41.9265 31.4172C42.1375 31.2062 42.4236 31.0877 42.722 31.0877H51.4194C51.7178 31.0877 52.0039 31.2062 52.2149 31.4172C52.4259 31.6282 52.5444 31.9143 52.5444 32.2127C52.5444 32.5111 52.4259 32.7972 52.2149 33.0082C52.0039 33.2192 51.7178 33.3377 51.4194 33.3377H42.722Z" fill="#0D3C9F"/>
</g>
<defs>
<clipPath id="clip0_144_5377">
<rect width="72" height="72" fill="white"/>
</clipPath>
</defs>
</svg>
